# xmcd
#
# Track frame offsets: 
#        150
#        13226
#        29152
#        41844
#        60078
#        73596
#        91672
#        107340
#        121185
#        135958
#        150321
#        162711
#
# Disc length: 2383 seconds
#
# Revision: 0
# Processed by: cddbd v1.5.2PL0 Copyright (c) Steve Scherf et al.
# Submitted via: ExactAudioCopyFreeDBPlugin 1.0
#
DISCID=90094d0c
DTITLE=Jonny Hill - Bitte Treten Sie Zurück
DYEAR=2014
DGENRE=Country
TTITLE0=Bitte treten Sie zurück
TTITLE1=Ist die schönste Zeit vorüber
TTITLE2=Ich halt dich fest
TTITLE3=Was fang ich ohne dich an?
TTITLE4=Dabei wär' es doch so leicht (Country Version)
TTITLE5=Die Erinnerung an stille Tage
TTITLE6=Immer wieder Rock'n' Roll
TTITLE7=Ein paar Jahre meh
TTITLE8=Mama und ich
TTITLE9=Kaffee ohne Zucker
TTITLE10=Ich stell mir vor, du wärst bei mir
TTITLE11=Warum musste alles so enden?
EXTD=
EXTT0=
EXTT1=
EXTT2=
EXTT3=
EXTT4=
EXTT5=
EXTT6=
EXTT7=
EXTT8=
EXTT9=
EXTT10=
EXTT11=
PLAYORDER=
